# xmcd
#
# Track frame offsets: 
#        150
#        30230
#        51782
#        73985
#        97736
#        121147
#        142521
#        175421
#        199658
#        224322
#        251730
#        273510
#        296219
#
# Disc length: 4229 seconds
#
# Revision: 0
# Processed by: cddbd v1.5.2PL0 Copyright (c) Steve Scherf et al.
# Submitted via: ExactAudioCopy v0.95a5
#
DISCID=be10830d
DTITLE=Various Artist - Tribute w holdzie Krolowi Bluesa
DYEAR=2015
DGENRE=Blues
TTITLE0=Why I Sing The Blues - Niki Buzz
TTITLE1=Never Make A Move Too Soon - Dariusz Kozakiewicz
TTITLE2=When Love Comes To Town -Wojciech Hoffman
TTITLE3=Everybody Lies A Little - Jerzy Styczynski
TTITLE4=Tired Of Your Jive - Jaroslaw Tioskow
TTITLE5=Ain't Nobody's Business - Bogdan Topolski
TTITLE6=Night Life - Leszek Winder
TTITLE7=Let The Good Times Roll - Janusz Siemienas
TTITLE8=Same Old Story Same Old Song - Bartek Miarka
TTITLE9=When It All Comes Down - Grzegorz Kapolka
TTITLE10=Story Everybody Knows - Leszek Cichonski
TTITLE11=I'm Moving On - Jacek Jagus ( spiew)
TTITLE12=Peace To The World - Dr Blues
EXTD=
EXTT0=
EXTT1=
EXTT2=
EXTT3=
EXTT4=
EXTT5=
EXTT6=
EXTT7=
EXTT8=
EXTT9=
EXTT10=
EXTT11=
EXTT12=
PLAYORDER=
